<svg width="49" height="49" viewBox="0 0 49 49" fill="none" xmlns="http://www.w3.org/2000/svg">
<g clip-path="url(#clip0_107_24)">
<path fill-rule="evenodd" clip-rule="evenodd" d="M6.11925 15.3077C4.28734 15.3077 2.88318 16.9352 3.15164 18.7473L5.59876 35.2654C4.98672 36.4808 4.64207 37.854 4.64207 39.3077C4.64207 44.2782 8.6715 48.3077 13.6421 48.3077C17.5607 48.3077 20.8944 45.8033 22.1299 42.3077H31.1542C32.3897 45.8033 35.7234 48.3077 39.6421 48.3077C44.6126 48.3077 48.6421 44.2782 48.6421 39.3077C48.6421 36.4435 47.3042 33.8919 45.2192 32.2435L42.986 22.9671C41.9044 18.4742 37.885 15.3077 33.2638 15.3077H19.6421H6.11925Z" fill="#2F80ED"/>
<path d="M47.8921 40.8077C47.8921 38.3537 46.5578 36.1292 44.4526 34.9412C44.7376 34.0637 44.8921 33.1397 44.8921 32.1909C44.8921 28.5114 42.5768 25.1702 39.1306 23.8779L38.8921 23.7879V22.3907C39.3353 22.6487 39.8431 22.8077 40.3921 22.8077H46.3921V16.8077H40.3921C39.8431 16.8077 39.3353 16.9667 38.8921 17.2247V16.8077C38.8921 15.6069 38.3093 14.4849 37.3516 13.7837C37.1573 12.5267 36.0773 11.5577 34.7671 11.5577L25.5953 11.5569C26.6686 10.6127 27.4013 9.29493 27.5881 7.80618H29.8898C31.1303 7.80618 32.1398 6.79668 32.1398 5.55618C32.1398 4.31568 31.1303 3.30618 29.8898 3.30618H26.3093C25.1746 1.89468 23.4631 1.05618 21.6398 1.05618C18.3316 1.05618 15.6398 3.74793 15.6398 7.05618C15.6398 9.28068 16.8593 11.2217 18.6623 12.2582C17.0956 13.0329 15.8738 14.3949 15.2836 16.0577H3.64209C2.40159 16.0577 1.39209 17.0672 1.39209 18.3077V27.3077C1.39209 28.5482 2.40159 29.5577 3.64209 29.5577H5.97534C4.99959 30.5117 4.39209 31.8392 4.39209 33.3077V34.8272C3.48684 35.5119 2.89209 36.5874 2.89209 37.8077C2.89209 39.8754 4.57434 41.5577 6.64209 41.5577H8.21784C8.56659 43.2669 10.0808 44.5577 11.8921 44.5577C13.7033 44.5577 15.2176 43.2669 15.5663 41.5577H35.9678C36.3166 43.2669 37.8308 44.5577 39.6421 44.5577C41.4533 44.5577 42.9676 43.2669 43.3163 41.5577H47.8921V40.8077ZM43.3921 32.1909C43.3921 34.1619 42.6248 36.0152 41.2306 37.4087L38.5816 40.0577H35.8921V16.5444C36.3481 16.3262 36.7291 15.9834 36.9931 15.5567C37.2406 15.9234 37.3921 16.3524 37.3921 16.8077V24.8274L38.6041 25.2819C41.4683 26.3559 43.3921 29.1324 43.3921 32.1909ZM32.8043 37.3517L30.6721 28.2887C30.1171 25.9269 28.2121 24.1427 25.8173 23.7437L25.3921 23.6724L25.3906 16.8077H34.3921V40.0577H32.3641C32.7046 39.5319 32.8913 38.9214 32.8906 38.2802V38.1002C32.8906 37.8512 32.8613 37.5999 32.8043 37.3517ZM44.8921 21.3077H43.3921V18.3077H44.8921V21.3077ZM40.3921 18.3077H41.8921V21.3077H40.3921C39.5648 21.3077 38.8921 20.6349 38.8921 19.8077C38.8921 18.9804 39.5648 18.3077 40.3921 18.3077ZM30.6406 5.55618C30.6406 5.96943 30.3046 6.30618 29.8906 6.30618H23.6041L23.7323 6.05043C24.1163 5.28318 24.8873 4.80618 25.7453 4.80618H29.8906C30.3046 4.80618 30.6406 5.14293 30.6406 5.55618ZM21.6406 2.55618C22.6718 2.55618 23.6551 2.91693 24.4433 3.54543C23.5658 3.86868 22.8263 4.50693 22.3906 5.37918L21.9271 6.30618H17.2081C17.5673 4.18143 19.4153 2.55618 21.6406 2.55618ZM17.2081 7.80618H26.0723C25.7138 9.93093 23.8658 11.5562 21.6398 11.5562C19.4138 11.5562 17.5673 9.93093 17.2081 7.80618ZM16.3906 18.3077C16.3906 15.4119 18.7463 13.0562 21.6421 13.0562L34.7671 13.0577C35.3873 13.0577 35.8921 13.5624 35.8921 14.1827C35.8921 14.8029 35.3873 15.3077 34.7671 15.3077H20.8921V16.8077H23.8906L23.8921 24.9429L25.5713 25.2234C27.3668 25.5219 28.7956 26.8607 29.2118 28.6314L31.3433 37.6922C31.3748 37.8279 31.3906 37.9644 31.3906 38.1002V38.2809C31.3906 38.7557 31.2061 39.2019 30.8708 39.5372C30.5348 39.8732 30.0893 40.0577 29.6146 40.0577C28.7978 40.0577 28.0898 39.5042 27.8911 38.7122L25.9381 30.8979C25.5196 29.2254 24.0241 28.0577 22.2998 28.0577L20.1398 28.0569C18.0721 28.0569 16.3906 26.3747 16.3906 24.3069V18.3077ZM26.8628 40.0577H23.8921V33.3077C23.8921 31.8399 23.2846 30.5124 22.3103 29.5584C23.3401 29.5629 24.2333 30.2619 24.4838 31.2609L26.4368 39.0752C26.5253 39.4322 26.6723 39.7622 26.8628 40.0577ZM3.64209 28.0577C3.22809 28.0577 2.89209 27.7217 2.89209 27.3077V18.3077C2.89209 17.8944 3.22809 17.5577 3.64209 17.5577H14.9348C14.9071 17.8044 14.8906 18.0542 14.8906 18.3077V24.3069C14.8906 25.7754 15.4988 27.1037 16.4738 28.0577H15.6421H9.64209H3.64209ZM11.8921 43.0577C10.9156 43.0577 10.0906 42.4284 9.78009 41.5577H14.0033C13.6936 42.4284 12.8686 43.0577 11.8921 43.0577ZM19.3921 40.0577H6.64209C5.40159 40.0577 4.39209 39.0482 4.39209 37.8077C4.39209 36.5672 5.40159 35.5577 6.64209 35.5577H17.1421C18.3826 35.5577 19.3921 36.5672 19.3921 37.8077V40.0577ZM17.1421 34.0577H6.64209C6.38559 34.0577 6.13434 34.0839 5.89209 34.1334V33.3077C5.89209 31.2399 7.57434 29.5577 9.64209 29.5577H15.6421H18.6421C20.7098 29.5577 22.3921 31.2399 22.3921 33.3077V40.0577H20.8921V37.8077C20.8921 35.7399 19.2098 34.0577 17.1421 34.0577ZM39.6421 43.0577C38.6656 43.0577 37.8406 42.4284 37.5301 41.5577H41.7533C41.4436 42.4284 40.6186 43.0577 39.6421 43.0577ZM40.7026 40.0577L42.2911 38.4692C42.9323 37.8279 43.4611 37.1049 43.8728 36.3257C45.2101 37.1402 46.1161 38.5089 46.3388 40.0577H40.7026Z" fill="#2F80ED"/>
<path d="M11.8921 37.0577H13.3921V38.5577H11.8921V37.0577Z" fill="#2F80ED"/>
<path d="M5.89209 37.0577H7.39209V38.5577H5.89209V37.0577Z" fill="#2F80ED"/>
<path d="M8.89209 37.0577H10.3921V38.5577H8.89209V37.0577Z" fill="#2F80ED"/>
</g>
<defs>
<clipPath id="clip0_107_24">
<rect width="48" height="48" fill="white" transform="translate(0.64209 0.307678)"/>
</clipPath>
</defs>
</svg>
