<svg width="49" height="49" viewBox="0 0 49 49" fill="none" xmlns="http://www.w3.org/2000/svg">
<g clip-path="url(#clip0_107_105)">
<path d="M48.504 20.5077C48.504 21.2077 48.504 21.8077 48.504 22.5077C48.504 22.6077 48.404 22.6077 48.404 22.7077C48.204 24.7077 47.504 26.6077 46.404 28.3077C45.604 29.6077 44.504 30.6077 43.504 31.7077C38.504 36.7077 33.404 41.6077 28.404 46.6077C28.004 47.0077 27.504 47.4077 27.004 47.8077C26.804 47.8077 26.704 47.8077 26.504 47.8077C26.304 47.6077 26.004 47.5077 25.804 47.3077C20.104 41.7077 14.404 36.1077 8.804 30.5077C7.104 28.8077 5.904 26.7077 5.404 24.4077C5.204 23.7077 5.204 23.1077 5.104 22.4077C5.104 21.7077 5.104 21.1077 5.104 20.4077C5.104 20.1077 5.204 19.8077 5.204 19.5077C6.104 13.6077 11.304 8.90768 17.204 8.60768C19.804 8.50768 22.204 9.00768 24.504 10.2077C24.6474 10.3511 27.1352 10.3077 28.804 10.3077C28.904 10.3077 29.004 10.2077 29.104 10.1077C31.904 8.60768 35.004 8.00768 38.104 8.70768C43.304 9.90768 46.804 13.0077 48.204 18.3077C48.304 19.0077 48.404 19.8077 48.504 20.5077Z" fill="#2F80ED"/>
<path fill-rule="evenodd" clip-rule="evenodd" d="M24.6041 22.2077L23.7041 26.4077H26.6041L25.8041 22.3077L24.6041 22.2077Z" fill="white"/>
<path fill-rule="evenodd" clip-rule="evenodd" d="M26.3041 10.0077C26.4041 9.90768 26.5041 9.90768 26.6041 9.80768C28.4041 8.80768 30.3041 8.20768 32.4041 8.10768C35.7041 7.90768 38.7041 8.90768 41.3041 11.0077C44.0041 13.2077 45.6041 16.1077 46.1041 19.5077C46.6041 23.4077 45.5041 26.8077 43.0041 29.8077C41.8041 31.2077 40.4041 32.5077 39.0041 33.9077C34.4041 38.5077 29.9041 43.0077 25.3041 47.6077C24.6041 48.3077 24.2041 48.3077 23.5041 47.6077C17.8041 41.9077 12.2041 36.3077 6.50411 30.6077C4.20411 28.3077 2.90411 25.5077 2.70411 22.2077C2.40411 18.7077 3.50411 15.6077 5.70411 12.9077C8.00411 10.0077 11.1041 8.50768 14.8041 8.20768C17.5041 7.90768 20.0041 8.60768 22.3041 9.90768C22.4041 9.90768 22.5041 10.0077 22.6041 10.1077C22.8091 8.87767 23.0041 7.54973 23.0041 6.30768C23.0041 6.10768 22.9041 5.80768 22.8041 5.60768C22.4041 5.10768 22.3041 4.70768 22.6041 4.10768C22.9041 3.50768 23.3041 2.90768 23.7041 2.30768C23.8282 2.12157 23.9041 2.20768 23.9041 1.60768C23.9041 1.40768 23.9041 1.20768 23.9041 0.907678C23.9041 0.607678 24.2041 0.307678 24.5041 0.307678C24.8041 0.307678 25.1041 0.507678 25.1041 0.907678C25.1041 1.40768 25.1041 1.90768 25.1041 1.40768C25.1041 1.60768 25.2041 2.10768 25.3041 2.30768C25.7488 3.04885 26.0265 3.59134 26.5041 4.30768C26.7041 4.70768 26.7041 5.00768 26.4041 5.30768C26.0041 5.70768 25.9041 6.10768 26.0041 6.60768C26.0611 7.74739 26.3041 8.86448 26.3041 10.0077ZM17.0041 35.1077C16.3041 35.1077 15.6041 35.1077 14.9041 35.1077C14.6041 35.1077 14.4041 35.1077 14.2041 34.8077C14.0041 34.5077 14.2041 34.3077 14.3041 34.0077C14.6041 33.6077 14.8041 33.3077 15.1041 32.9077C16.3041 31.0077 17.5041 29.1077 18.7041 27.2077C18.9041 26.9077 18.9041 26.8077 18.5041 26.8077C18.1041 26.8077 17.9041 26.5077 17.9041 26.2077C17.9041 25.9077 18.1041 25.6077 18.5041 25.6077C18.8041 25.6077 19.0041 25.6077 19.3041 25.6077C19.4041 25.6077 19.6041 25.5077 19.7041 25.4077C20.1041 24.5077 20.6041 23.6077 20.9041 22.7077C21.2041 22.0077 21.4041 21.3077 21.6041 20.6077C21.7041 20.2077 21.6041 20.1077 21.3041 20.1077C21.1041 20.1077 21.0041 20.1077 20.8041 20.1077C20.4041 20.1077 20.2041 19.8077 20.2041 19.5077C20.2041 19.1077 20.4041 18.9077 20.9041 18.9077C21.1041 18.9077 21.3041 18.9077 21.5041 18.9077C22.1041 18.9077 22.1041 18.9077 22.2041 18.3077C22.4041 16.6077 22.6041 14.9077 22.7041 13.2077C22.8041 11.9077 22.8041 11.9077 21.6041 11.2077C19.4041 10.0077 17.0041 9.60768 14.5041 9.90768C10.8041 10.4077 8.00411 12.3077 6.10411 15.5077C4.80411 17.7077 4.50411 20.1077 4.80411 22.7077C5.10411 25.2077 6.20411 27.4077 8.00411 29.2077C9.70411 30.9077 11.5041 32.7077 13.2041 34.4077C16.9041 38.1077 20.6041 41.8077 24.2041 45.4077C24.5041 45.7077 24.8041 45.7077 25.1041 45.4077C30.3041 40.3077 35.4041 35.1077 40.6041 30.0077C41.7041 28.9077 42.7041 27.8077 43.4041 26.4077C44.6041 24.1077 44.8041 21.6077 44.5041 19.1077C44.2041 16.9077 43.1041 14.9077 41.6041 13.3077C40.5041 12.2077 39.3041 11.3077 37.9041 10.7077C35.7041 9.80768 33.5041 9.60768 31.2041 10.0077C29.6041 10.3077 28.2041 10.9077 26.9041 11.8077C26.7041 11.9077 26.6041 12.1077 26.7041 12.3077C26.9041 14.2077 27.1041 16.0077 27.2041 17.9077C27.2041 18.1077 27.2041 18.4077 27.3041 18.6077C27.3041 18.7077 27.5041 18.8077 27.6041 18.8077C27.9041 18.8077 28.2041 18.8077 28.4041 18.8077C28.8041 18.8077 29.1041 19.0077 29.1041 19.4077C29.1041 19.7077 28.8041 20.0077 28.5041 20.0077C28.3041 20.0077 28.1041 20.0077 27.9041 20.0077C27.6041 20.0077 27.5041 20.1077 27.6041 20.4077C27.8041 21.0077 27.9041 21.5077 28.1041 22.1077C28.5041 23.1077 28.9041 24.1077 29.3041 25.0077C29.5041 25.4077 29.7041 25.6077 30.1041 25.5077C30.2041 25.5077 30.3041 25.5077 30.5041 25.5077C30.9041 25.5077 31.2041 25.7077 31.2041 26.1077C31.2041 26.5077 31.0041 26.7077 30.5041 26.8077C30.2041 26.8077 30.2041 26.9077 30.3041 27.1077C30.8041 28.0077 31.3041 28.9077 31.9041 29.8077C32.8041 31.2077 33.8041 32.6077 34.7041 34.0077C34.9041 34.2077 35.0041 34.5077 34.8041 34.7077C34.6041 35.0077 34.4041 35.0077 34.2041 35.0077C33.4041 35.0077 32.6041 35.0077 31.8041 35.0077C31.1041 35.0077 30.5041 35.0077 29.8041 35.0077C29.5041 35.0077 29.3041 34.8077 29.2041 34.5077C29.0041 33.9077 28.8041 33.3077 28.6041 32.8077C27.5041 30.7077 26.0041 30.0077 23.8041 30.3077C23.3041 30.4077 22.8041 30.6077 22.4041 30.8077C21.1041 31.6077 20.4041 33.0077 20.0041 34.4077C19.9041 34.9077 19.7041 35.0077 19.3041 35.0077C18.4041 35.1077 17.7041 35.1077 17.0041 35.1077ZM24.5041 20.1077C24.1041 20.1077 23.6041 20.1077 23.2041 20.1077C23.1041 20.1077 22.9041 20.2077 22.9041 20.3077C22.8041 20.5077 22.8041 20.8077 22.7041 21.0077C22.4041 22.3077 21.9041 23.6077 21.3041 24.8077C20.7041 26.0077 20.1041 27.2077 19.4041 28.4077C18.4041 30.1077 17.3041 31.7077 16.2041 33.4077C16.1041 33.5077 16.1041 33.6077 16.1041 33.7077C16.2041 33.7077 16.3041 33.8077 16.4041 33.8077C17.0041 33.8077 17.7041 33.8077 18.3041 33.8077C18.5041 33.8077 18.7041 33.7077 18.7041 33.5077C18.9041 33.1077 19.1041 32.6077 19.3041 32.2077C19.8041 31.2077 20.4041 30.4077 21.3041 29.8077C22.8041 28.9077 24.4041 28.7077 26.0041 29.2077C27.4041 29.6077 28.5041 30.5077 29.2041 31.8077C29.5041 32.3077 29.7041 32.9077 30.0041 33.4077C30.1041 33.6077 30.2041 33.7077 30.4041 33.7077C31.1041 33.7077 31.8041 33.7077 32.5041 33.7077C32.6041 33.7077 32.8041 33.7077 32.8041 33.6077C32.8041 33.5077 32.8041 33.4077 32.7041 33.3077C32.1041 32.4077 31.4041 31.4077 30.8041 30.5077C29.4041 28.3077 28.2041 26.1077 27.2041 23.8077C26.7041 22.6077 26.4041 21.4077 26.0041 20.2077C25.9041 20.0077 25.9041 19.9077 25.7041 19.9077C25.3041 20.1077 24.9041 20.1077 24.5041 20.1077ZM23.7041 13.0077C23.6041 13.8077 23.5041 14.5077 23.5041 15.2077C23.4041 16.3077 23.3041 17.4077 23.1041 18.4077C23.1041 18.7077 23.1041 18.8077 23.4041 18.8077C24.1041 18.8077 24.8041 18.8077 25.4041 18.8077C25.7041 18.8077 25.8041 18.7077 25.7041 18.4077C25.6041 17.4077 25.4041 16.4077 25.3041 15.3077C25.2041 14.5077 25.1041 13.8077 25.1041 12.9077C24.7041 13.5077 24.2041 13.5077 23.7041 13.0077ZM24.5041 3.00768L23.4832 4.90768C23.4832 4.90768 24.2116 5.53019 24.3041 5.80768C24.3041 5.80768 24.1021 9.13773 24.0041 10.6077C24.0041 10.9077 24.2041 11.1077 24.4041 11.2077C24.6041 11.3077 24.8041 11.2077 25.0041 11.1077C25.2041 10.9077 25.2041 10.7077 25.2041 10.5077C25.1041 8.00768 24.7041 5.80768 24.7041 5.80768L25.7041 4.80768L24.5041 3.00768Z" fill="#F2F2F2"/>
<path fill-rule="evenodd" clip-rule="evenodd" d="M13.6041 12.4077C14.1041 12.4077 14.5041 12.8077 14.5041 13.2077C14.6041 13.6077 14.3041 13.9077 13.9041 14.1077C13.3041 14.3077 12.7041 14.5077 12.1041 14.9077C9.9041 16.3077 8.6041 18.3077 8.6041 20.9077C8.6041 21.6077 8.7041 22.4077 8.8041 23.1077C8.8041 23.5077 8.5041 24.0077 8.1041 24.1077C7.7041 24.2077 7.2041 24.0077 7.1041 23.5077C6.8041 22.6077 6.7041 21.6077 6.7041 20.7077C6.8041 19.3077 7.2041 18.0077 7.8041 16.8077C8.9041 14.9077 10.4041 13.5077 12.4041 12.7077C12.9041 12.6077 13.3041 12.5077 13.6041 12.4077Z" fill="#F2F2F2"/>
<path fill-rule="evenodd" clip-rule="evenodd" d="M24.5042 27.1077C24.0042 27.1077 23.4042 27.1077 22.9042 27.1077C22.4042 27.1077 22.1042 26.8077 22.2042 26.3077C22.4042 25.5077 22.6042 24.7077 22.8042 24.0077C22.9042 23.4077 23.0042 22.8077 23.1042 22.1077C23.2042 21.7077 23.3042 21.4077 23.8042 21.4077C24.3042 21.4077 24.8042 21.4077 25.2042 21.4077C25.6042 21.4077 25.8042 21.6077 25.9042 22.0077C26.2042 23.4077 26.5042 24.8077 26.8042 26.3077C26.9042 26.9077 26.7042 27.2077 26.1042 27.2077C25.5042 27.1077 25.0042 27.1077 24.5042 27.1077ZM24.4042 25.8077C24.6042 25.8077 24.9042 25.8077 25.1042 25.8077C25.3042 25.8077 25.3042 25.7077 25.3042 25.5077C25.1042 24.6077 24.9042 23.8077 24.7042 22.9077C24.7042 22.7077 24.7042 22.5077 24.4042 22.5077C24.1042 22.5077 24.1042 22.7077 24.1042 22.9077C24.0042 23.6077 23.9042 24.2077 23.7042 24.9077C23.6042 25.8077 23.5042 25.8077 24.4042 25.8077Z" fill="#F2F2F2"/>
<path fill-rule="evenodd" clip-rule="evenodd" d="M35.0041 11.5077C34.5041 11.5077 34.1041 11.9077 34.1041 12.3077C34.0041 12.7077 34.3041 13.0077 34.7041 13.2077C35.3041 13.4077 35.9041 13.6077 36.5041 14.0077C38.7041 15.4077 40.0041 17.4077 40.0041 20.0077C40.0041 20.7077 39.9041 21.5077 39.8041 22.2077C39.8041 22.6077 40.1041 23.1077 40.5041 23.2077C40.9041 23.3077 41.4041 23.1077 41.5041 22.6077C41.8041 21.7077 41.9041 20.7077 41.9041 19.8077C41.8041 18.4077 41.4041 17.1077 40.8041 15.9077C39.7041 14.0077 38.2041 12.6077 36.2041 11.8077C35.7041 11.7077 35.3041 11.6077 35.0041 11.5077Z" fill="white"/>
</g>
<defs>
<clipPath id="clip0_107_105">
<rect width="48" height="48" fill="white" transform="translate(0.704102 0.307678)"/>
</clipPath>
</defs>
</svg>
