<svg width="49" height="49" viewBox="0 0 49 49" fill="none" xmlns="http://www.w3.org/2000/svg">
<g clip-path="url(#clip0_107_261)">
<circle cx="23.6331" cy="25.3077" r="23" fill="#2F80ED"/>
<path d="M25.6332 46.3077C29.8122 46.3114 33.9128 45.173 37.492 43.0156C37.8544 42.7965 37.9706 42.325 37.7515 41.9626C37.5324 41.6002 37.0609 41.484 36.6985 41.7031C29.7089 45.8983 20.9462 45.7725 14.08 41.3784C7.21373 36.9842 3.42885 29.0802 4.31033 20.976C5.1918 12.8719 10.5875 5.9664 18.2379 3.15124C18.6355 3.00537 18.8395 2.56481 18.6937 2.16722C18.5478 1.76963 18.1072 1.56557 17.7097 1.71144C7.23575 5.54874 1.02516 16.3484 2.97648 27.3311C4.9278 38.3138 14.4785 46.3132 25.6332 46.3077Z" fill="#F2F2F2"/>
<path d="M33.0285 3.15124C39.0843 5.37619 43.8191 10.2053 45.9243 16.3037C48.0295 22.4021 47.282 29.1238 43.8884 34.6106C43.744 34.8435 43.7349 35.1356 43.8643 35.377C43.9938 35.6184 44.2422 35.7725 44.516 35.7811C44.7898 35.7897 45.0474 35.6515 45.1917 35.4187C48.8286 29.5401 49.6302 22.3379 47.3746 15.8035C45.1191 9.26915 40.0456 4.0949 33.5568 1.71144C33.1592 1.56557 32.7186 1.76963 32.5728 2.16722C32.4269 2.56481 32.631 3.00537 33.0285 3.15124Z" fill="#F2F2F2"/>
<path d="M22.5664 14.5523V21.0314C21.7531 22.1068 21.5705 23.5325 22.0864 24.7781C22.6023 26.0237 23.7395 26.9027 25.0749 27.0881L31.0495 33.0628L31.0541 33.0697L41.8964 43.908C42.1839 44.1957 42.574 44.3574 42.9808 44.3574C43.3876 44.3574 43.7777 44.1957 44.0653 43.908C46.4665 41.5061 45.0474 38.388 38.6441 31.9818L35.3912 28.7288H35.3858L29.4096 22.7488C29.3188 22.1264 29.0748 21.5363 28.6997 21.0314V14.5508C30.0975 13.944 31.0013 12.5648 30.9997 11.041V2.60766C31.004 1.99713 30.7596 1.41116 30.3227 0.984628C30.2864 0.94542 30.2469 0.909265 30.2047 0.876528C29.3336 0.107337 28.0222 0.120242 27.1664 0.906428C26.7425 0.514942 26.1847 0.300678 25.6077 0.307661C25.0483 0.319894 24.5117 0.532028 24.0951 0.905661C23.2471 0.1255 21.9485 0.106689 21.0783 0.861961C20.5616 1.29427 20.2641 1.93401 20.2664 2.60766V11.041C20.2642 12.5654 21.168 13.9453 22.5664 14.5523ZM31.5977 31.4344L27.0276 26.865C28.0196 26.4754 28.8046 25.6904 29.1942 24.6984L33.7597 29.2724L31.5977 31.4344ZM27.1664 19.7994C26.1901 19.366 25.076 19.366 24.0997 19.7994V14.8743H27.1664V19.7994ZM23.333 23.3077C23.333 22.0374 24.3628 21.0077 25.633 21.0077C26.9033 21.0077 27.933 22.0374 27.933 23.3077C27.933 24.5779 26.9033 25.6077 25.633 25.6077C24.3628 25.6077 23.333 24.5779 23.333 23.3077ZM42.9804 42.824L32.681 32.5238L34.8491 30.3557L37.5601 33.0658C45.1493 40.6551 43.7923 42.0144 42.9804 42.824ZM21.7997 2.60766C21.8017 2.3814 21.9036 2.16759 22.078 2.02346C22.3824 1.76403 22.8362 1.78689 23.113 2.0756C23.2552 2.21596 23.3345 2.40787 23.333 2.60766V8.741C23.333 9.16442 23.6763 9.50767 24.0997 9.50767C24.5231 9.50767 24.8664 9.16442 24.8664 8.741V2.60766C24.8723 2.20736 25.1798 1.87631 25.5786 1.841H25.7051C26.0983 1.88204 26.3975 2.21237 26.3997 2.60766V8.741C26.3997 9.16442 26.743 9.50767 27.1664 9.50767C27.5898 9.50767 27.933 9.16442 27.933 8.741V2.60766C27.933 2.18424 28.2763 1.841 28.6997 1.841C29.1231 1.841 29.4664 2.18424 29.4664 2.60766V11.041C29.4669 12.0957 28.7487 13.015 27.7253 13.2697C27.5432 13.3195 27.3551 13.3435 27.1664 13.341H24.0997C23.9044 13.3427 23.7098 13.3169 23.5216 13.2643C22.5066 13.0044 21.7975 12.0888 21.7997 11.041V2.60766Z" fill="#F2F2F2"/>
<path d="M18.6635 6.26771C18.4873 5.88294 18.0326 5.71375 17.6477 5.88975C17.121 6.13048 16.6142 6.40111 16.1143 6.68555C16.0921 6.69628 16.0683 6.69628 16.0469 6.70855C16.0254 6.72081 16.0078 6.74688 15.9848 6.76298C13.1375 8.42774 10.768 10.7991 9.10545 13.6477C9.08007 13.6714 9.05649 13.697 9.03492 13.7243C9.02253 13.7534 9.01228 13.7834 9.00425 13.814C5.61518 19.7073 5.62103 26.9595 9.01959 32.8473C9.02725 32.8611 9.02649 32.8772 9.03492 32.891C9.04335 32.9048 9.06252 32.9255 9.07555 32.9439C10.7529 35.8136 13.1432 38.2012 16.0147 39.8753C16.0277 39.8845 16.0354 39.8983 16.0499 39.9068C16.0717 39.9171 16.0939 39.9263 16.1166 39.9344C21.8302 43.2157 28.8305 43.3243 34.6431 40.2219C34.892 40.0968 35.0535 39.8465 35.0649 39.5682C35.0763 39.2899 34.9358 39.0273 34.698 38.8823C34.4601 38.7373 34.1624 38.7327 33.9202 38.8702C31.5979 40.106 29.0282 40.8055 26.3999 40.9172V39.4077C26.3999 38.9843 26.0567 38.641 25.6333 38.641C25.2099 38.641 24.8666 38.9843 24.8666 39.4077V40.9218C22.2926 40.8125 19.7745 40.1363 17.492 38.9415L18.2472 37.6344C18.3863 37.397 18.3876 37.1033 18.2506 36.8648C18.1136 36.6262 17.8592 36.4794 17.5841 36.48C17.309 36.4806 17.0553 36.6285 16.9193 36.8677L16.1657 38.171C13.9968 36.7842 12.1552 34.9426 10.7684 32.7737L12.0717 32.0201C12.3109 31.8841 12.4588 31.6304 12.4594 31.3553C12.46 31.0802 12.3132 30.8258 12.0746 30.6888C11.8361 30.5518 11.5424 30.5531 11.305 30.6922L10.0017 31.4474C8.80634 29.1655 8.12937 26.648 8.01909 24.0743H9.53325C9.95667 24.0743 10.2999 23.7311 10.2999 23.3077C10.2999 22.8842 9.95667 22.541 9.53325 22.541H8.02829C8.14071 19.9692 8.81674 17.4535 10.0086 15.1718L11.3066 15.9216C11.5439 16.0607 11.8376 16.062 12.0761 15.925C12.3147 15.788 12.4616 15.5336 12.461 15.2585C12.4604 14.9834 12.3124 14.7297 12.0732 14.5937L10.7699 13.8409C12.1531 11.6694 13.9945 9.82672 16.1649 8.44198L16.9193 9.74532C17.0553 9.98448 17.309 10.1324 17.5841 10.1331C17.8592 10.1337 18.1136 9.9868 18.2506 9.74824C18.3876 9.50968 18.3863 9.21599 18.2472 8.97865L17.4966 7.67531C17.7573 7.53961 18.0164 7.40161 18.2855 7.27818C18.6673 7.10198 18.8359 6.65119 18.6635 6.26771Z" fill="#F2F2F2"/>
<path d="M41.4916 32.6457C41.6705 32.7423 41.8805 32.7638 42.0753 32.7056C42.2701 32.6473 42.4338 32.5141 42.5304 32.3352C45.649 26.5303 45.5475 19.5262 42.2621 13.814C42.254 13.7834 42.2438 13.7534 42.2314 13.7243C42.2101 13.6971 42.1868 13.6714 42.1616 13.6477C40.4979 10.7987 38.1271 8.42738 35.2785 6.763C35.2555 6.7469 35.2409 6.72313 35.2164 6.70857C35.1943 6.70001 35.1718 6.69259 35.1489 6.68633C34.6521 6.40113 34.1454 6.1305 33.6156 5.88977C33.2343 5.73322 32.7974 5.9062 32.6267 6.28137C32.4559 6.65653 32.6123 7.09958 32.9808 7.28433C33.2499 7.40777 33.509 7.54577 33.7697 7.68147L33.0191 8.9848C32.88 9.22214 32.8787 9.51583 33.0157 9.75439C33.1528 9.99296 33.4071 10.1398 33.6822 10.1392C33.9573 10.1386 34.211 9.99063 34.347 9.75147L35.1014 8.44813C37.2719 9.83287 39.1132 11.6755 40.4964 13.847L39.1931 14.5999C38.9539 14.7358 38.806 14.9895 38.8054 15.2647C38.8048 15.5398 38.9516 15.7941 39.1902 15.9311C39.4287 16.0682 39.7224 16.0669 39.9598 15.9277L41.2577 15.1779C42.4487 17.4578 43.1247 19.9713 43.238 22.541H41.7331C41.3097 22.541 40.9664 22.8843 40.9664 23.3077C40.9664 23.7311 41.3097 24.0743 41.7331 24.0743H43.2426C43.1325 26.7085 42.4277 29.2837 41.1811 31.6068C41.0845 31.7858 41.0629 31.9957 41.1212 32.1906C41.1794 32.3854 41.3126 32.5491 41.4916 32.6457Z" fill="#F2F2F2"/>
</g>
<defs>
<clipPath id="clip0_107_261">
<rect width="48" height="48" fill="white" transform="translate(0.633057 0.307678)"/>
</clipPath>
</defs>
</svg>
